<?xml version="1.0" encoding="UTF-8"?>
<svg version="1.1" xmlns="http://www.w3.org/2000/svg" width="93" height="84">
<path d="M0 0 C4.85904928 0.13882998 8.54474955 2.78936905 12 6 C19.22756681 14.87958209 22.42873331 24.90829139 25.16796875 35.83984375 C25.85131652 38.87325309 25.85131652 38.87325309 27 41 C28.2500618 39.08310946 28.2500618 39.08310946 27.44140625 37.265625 C27.15136719 36.60046875 26.86132812 35.9353125 26.5625 35.25 C25.13527922 31.69492279 24.70996112 28.86718504 25 25 C25.66 25 26.32 25 27 25 C28.32 29.29 29.64 33.58 31 38 C36.72698042 39.22461423 36.72698042 39.22461423 41.125 37.125 C43.75355292 35.61542945 46.02356277 34.62174467 49 34 C46.13924824 38.07106981 43.62189854 40.13157293 39 42 C38.01 42 37.02 42 36 42 C36 43.32 36 44.64 36 46 C36.59949463 45.67725098 37.19898926 45.35450195 37.81665039 45.02197266 C40.56156728 43.54929708 43.31193378 42.087095 46.0625 40.625 C47.00544922 40.11710937 47.94839844 39.60921875 48.91992188 39.0859375 C56.67892296 34.97664076 63.33095315 32.64594023 72.125 32.6875 C72.81464844 32.67138672 73.50429687 32.65527344 74.21484375 32.63867188 C78.66757431 32.63441496 81.4139478 33.35580976 85 36 C84.50180611 40.16347755 83.56434509 41.77150304 80.375 44.4375 C75.50890661 48.9728035 73.33234023 54.01140006 70.73828125 60.0234375 C69 63 69 63 66.5625 64.4375 C62.73244093 65.27824467 59.85026689 64.65258761 56 64 C56.04640625 64.65226562 56.0928125 65.30453125 56.140625 65.9765625 C56.3217079 70.3613556 56.3065292 73.33789693 54.4375 77.375 C50.50415036 81.610915 46.76214156 84.16676557 40.875 84.5 C36.35826023 83.91719487 34.95341141 83.44564664 32 80 C29.29794079 74.58646675 27.52353831 68.84023018 26 63 C24.35 65.97 22.7 68.94 21 72 C19.515 71.505 19.515 71.505 18 71 C18.99 67.37 19.98 63.74 21 60 C19.618125 60.94875 18.23625 61.8975 16.8125 62.875 C11.31864618 66.64689964 6.79383544 68.83433067 0 68 C-4.16030385 65.25262953 -6.90513887 62.92687509 -8 58 C-8.73112692 53.3561389 -9.05622947 49.63570698 -6.43359375 45.57421875 C-4.70168124 43.60438695 -2.93603109 41.76811003 -1 40 C-1.969375 39.113125 -2.93875 38.22625 -3.9375 37.3125 C-6.76936343 34.72164622 -7.77042582 32.86916492 -8 29 C-7.0390625 25.90625 -7.0390625 25.90625 -5.625 22.5 C-3.28456269 16.38778356 -2.38938212 11.06807048 -2.23828125 4.546875 C-2 2 -2 2 0 0 Z " fill="#ED7CC0" transform="translate(8,0)"/>
</svg>
